<?xml version="1.0" standalone="no"?>
<!DOCTYPE svg PUBLIC "-//W3C//DTD SVG 20010904//EN"
 "http://www.w3.org/TR/2001/REC-SVG-20010904/DTD/svg10.dtd">
<svg version="1.0" xmlns="http://www.w3.org/2000/svg"
 width="1024.000000pt" height="1024.000000pt" viewBox="0 0 1024.000000 1024.000000"
 preserveAspectRatio="xMidYMid meet">

<g transform="translate(0.000000,1024.000000) scale(0.100000,-0.100000)"
fill="#000000" stroke="none">
<path d="M0 5120 l0 -5120 5120 0 5120 0 0 5120 0 5120 -5120 0 -5120 0 0
-5120z m4565 3445 c117 -30 264 -113 415 -234 35 -28 67 -51 72 -51 5 0 46 29
91 64 125 97 230 162 320 197 69 28 98 33 188 37 90 3 113 1 151 -15 163 -73
211 -234 154 -523 -14 -74 -29 -145 -32 -157 -5 -19 3 -24 93 -53 208 -67 338
-165 401 -299 31 -67 34 -81 29 -138 -6 -80 -46 -162 -107 -224 -56 -56 -213
-151 -323 -195 -95 -39 -90 -25 -58 -182 26 -127 28 -259 4 -333 -23 -74 -103
-152 -175 -174 -101 -30 -168 -12 -168 44 0 38 14 47 82 55 75 10 130 48 153
110 15 38 17 65 12 149 -4 56 -15 136 -25 177 -15 62 -21 76 -39 78 -12 2 -73
-8 -135 -22 -205 -46 -344 -60 -588 -59 -244 0 -383 13 -625 59 -167 32 -156
35 -175 -59 -46 -235 -28 -359 61 -411 53 -31 88 -25 151 26 31 25 71 51 90
57 20 6 184 11 431 13 l399 3 19 -24 c18 -22 19 -41 18 -290 -1 -146 -5 -405
-9 -576 -5 -227 -6 -161 -3 250 2 308 0 574 -5 590 l-8 30 -420 0 -420 0 -40
-28 c-21 -15 -58 -42 -81 -59 -40 -30 -44 -31 -83 -19 -53 16 -106 63 -122
109 -17 49 -14 205 6 306 9 44 14 82 11 84 -2 2 -6 -7 -10 -22 -3 -14 -7 -37
-10 -51 -12 -57 -59 16 -50 78 l5 32 -10 -30 c-6 -16 -8 -38 -6 -48 2 -9 1
-15 -3 -12 -7 4 -14 -33 -41 -225 -9 -64 -9 -64 -5 22 3 48 7 98 9 110 33 163
38 200 30 207 -5 4 -46 23 -92 41 -95 37 -220 110 -282 163 -192 164 -183 402
22 552 68 50 210 122 296 150 55 17 61 29 43 77 -23 62 -53 286 -49 363 9 128
64 221 160 269 44 22 65 26 138 26 47 0 113 -7 145 -15z m-355 -1765 c0 -5 -4
-10 -10 -10 -5 0 -10 5 -10 10 0 6 5 10 10 10 6 0 10 -4 10 -10z m-21 -379
c22 -42 74 -92 123 -117 17 -9 68 -19 114 -24 68 -6 92 -13 124 -35 49 -34 94
-89 116 -140 20 -48 34 -207 32 -370 l-1 -130 -8 180 c-4 99 -10 203 -14 230
-12 93 -59 170 -139 227 -20 15 -52 23 -111 29 -91 8 -127 23 -187 77 -45 40
-88 122 -87 162 1 19 3 16 10 -13 5 -20 18 -55 28 -76z m3091 -34 c94 -48 141
-173 105 -282 -21 -63 -56 -101 -120 -131 -59 -28 -113 -30 -184 -7 l-52 16
-172 -171 c-95 -94 -185 -176 -202 -184 -23 -9 -91 -12 -276 -10 -204 3 -254
0 -285 -12 -27 -11 -107 -85 -264 -244 -124 -126 -182 -183 -130 -128 271 289
309 333 305 354 -2 15 0 19 11 15 7 -3 12 -9 9 -14 -3 -4 14 3 37 16 24 14 55
25 70 25 29 0 45 15 28 25 -5 3 -10 1 -10 -4 0 -6 -7 -11 -16 -11 -8 0 -12 5
-9 10 3 6 -1 10 -9 10 -9 0 -16 -5 -16 -11 0 -5 -4 -7 -10 -4 -5 3 -10 1 -10
-5 0 -6 -5 -8 -12 -4 -6 4 -8 3 -5 -3 4 -6 0 -13 -8 -16 -9 -4 -12 -1 -8 9 4
10 0 12 -11 8 -9 -3 -16 -9 -16 -13 0 -4 -22 -7 -50 -6 -41 0 -50 3 -50 18 0
9 9 26 20 37 11 11 15 20 9 20 -20 0 12 30 55 53 40 21 50 22 301 19 256 -3
261 -3 301 20 23 13 105 89 183 169 l141 146 -6 46 c-17 121 61 237 181 268
47 12 125 2 175 -24z m-1853 -199 c-3 -8 -6 -5 -6 6 -1 11 2 17 5 13 3 -3 4
-12 1 -19z m0 -110 c-3 -8 -6 -5 -6 6 -1 11 2 17 5 13 3 -3 4 -12 1 -19z m495
-411 c-12 -13 -20 -27 -17 -30 3 -4 2 -5 -2 -2 -10 8 -33 -16 -26 -28 3 -5 2
-8 -3 -5 -5 4 -72 -60 -149 -141 -77 -81 -142 -147 -144 -145 -5 5 343 373
353 374 5 0 0 -10 -12 -23z m1524 -82 c102 -60 127 -101 128 -210 1 -74 -36
-161 -82 -194 -65 -46 -158 -63 -218 -41 -26 10 -32 6 -108 -67 l-80 -78 69
75 c39 41 75 78 80 81 6 4 33 2 61 -4 65 -13 144 5 144 34 0 12 -6 17 -20 14
-13 -2 -20 2 -20 11 0 10 -5 12 -12 8 -8 -5 -7 0 2 11 10 13 11 16 2 11 -8 -5
-18 -1 -26 9 -8 11 -28 18 -57 19 -25 1 -51 6 -58 11 -10 5 -12 4 -7 -3 4 -7
2 -12 -3 -12 -6 0 -11 5 -11 10 0 6 -7 10 -16 10 -8 0 -12 5 -9 10 3 6 -3 10
-15 10 -12 0 -18 5 -15 10 3 6 -1 10 -9 10 -10 0 -13 -6 -10 -17 5 -17 5 -17
-6 0 -6 9 -16 15 -21 12 -5 -4 -6 -11 -3 -17 4 -7 2 -8 -4 -4 -9 5 -10 -5 -6
-36 l5 -43 -127 -125 -128 -125 122 127 c67 69 122 131 122 136 0 6 -7 39 -16
73 -36 139 27 250 169 301 64 23 124 17 183 -17z m-1473 6 c4 -17 2 -18 -14
-8 -13 8 -15 13 -6 19 7 4 13 8 13 8 1 0 4 -9 7 -19z m-1266 -273 c-2 -29 -3
-6 -3 52 0 58 1 81 3 53 2 -29 2 -77 0 -105z m853 -21 c0 -2 -15 -16 -32 -33
l-33 -29 29 33 c28 30 36 37 36 29z m-106 -23 c3 -8 2 -12 -4 -9 -6 3 -10 10
-10 16 0 14 7 11 14 -7z m1149 -31 c-68 -2 -178 -2 -245 0 -68 1 -13 3 122 3
135 0 190 -2 123 -3z m155 -67 l-1 -41 -4 40 c-3 22 -10 47 -16 55 -11 13 -10
13 6 1 12 -9 16 -26 15 -55z"/>
<path d="M4347 8456 c-49 -18 -64 -32 -89 -80 -38 -75 -35 -186 12 -389 10
-44 23 -84 28 -89 8 -8 42 -4 114 10 57 12 155 29 219 38 l116 17 106 113 c72
75 105 117 101 128 -7 18 -220 164 -295 202 -60 30 -187 64 -238 64 -20 -1
-53 -7 -74 -14z"/>
<path d="M5605 8460 c-67 -14 -149 -48 -233 -99 -107 -64 -212 -140 -219 -157
-3 -9 36 -57 103 -127 l109 -112 85 -12 c47 -7 145 -25 219 -39 103 -20 135
-23 141 -14 4 7 15 47 24 89 22 105 26 128 32 191 2 30 7 65 9 76 3 12 -2 45
-11 75 -32 108 -127 155 -259 129z"/>
<path d="M4991 8059 c-33 -35 -59 -68 -57 -74 1 -6 51 -11 115 -13 143 -3 149
5 63 91 l-61 61 -60 -65z"/>
<path d="M4858 7853 c-58 -4 -58 -4 -111 -71 -88 -110 -237 -347 -237 -377 0
-6 32 -59 70 -117 39 -59 97 -158 131 -222 l60 -115 47 -8 c62 -10 402 -10
472 0 l55 8 54 105 c30 58 88 156 128 217 40 62 73 118 73 125 0 20 -84 163
-172 292 -125 184 -84 163 -314 165 -110 2 -225 1 -256 -2z m320 -270 c63 -39
87 -88 87 -179 0 -60 -4 -77 -28 -112 -76 -115 -278 -116 -354 -1 -34 51 -42
142 -19 204 18 47 68 93 121 113 50 19 141 8 193 -25z"/>
<path d="M4455 7806 c-87 -17 -111 -26 -113 -40 -2 -10 11 -54 29 -99 37 -90
57 -127 70 -127 4 0 20 21 36 48 15 26 51 84 80 130 29 45 53 89 53 97 0 19
-19 18 -155 -9z"/>
<path d="M5500 7816 c0 -8 29 -63 65 -123 76 -127 93 -153 103 -153 18 0 111
224 98 237 -5 6 -229 52 -253 53 -7 0 -13 -6 -13 -14z"/>
<path d="M4143 7730 c-164 -58 -296 -149 -337 -232 -71 -142 11 -257 282 -393
140 -70 133 -72 172 32 18 48 51 127 73 176 l40 87 -55 118 c-31 64 -66 143
-79 175 -12 31 -27 57 -33 56 -6 0 -34 -9 -63 -19z"/>
<path d="M5883 7738 c-5 -7 -24 -53 -43 -103 -18 -49 -49 -123 -68 -163 l-35
-72 27 -49 c14 -27 48 -104 76 -172 27 -68 53 -125 58 -127 15 -5 217 94 280
137 76 51 139 123 152 173 37 136 -92 270 -348 362 -84 30 -86 30 -99 14z"/>
<path d="M4404 7203 c-38 -87 -69 -181 -62 -188 8 -8 154 -40 221 -49 37 -4
49 -2 53 9 11 26 -145 285 -171 285 -9 0 -26 -24 -41 -57z"/>
<path d="M5602 7178 c-76 -127 -108 -196 -95 -209 11 -11 249 33 266 50 8 8
-64 201 -86 229 -19 25 -37 10 -85 -70z"/>
<path d="M4050 7016 c0 -2 7 -7 16 -10 8 -3 12 -2 9 4 -6 10 -25 14 -25 6z"/>
<path d="M4125 6980 c27 -12 43 -12 25 0 -8 5 -22 9 -30 9 -10 0 -8 -3 5 -9z"/>
<path d="M4438 6893 c7 -3 16 -2 19 1 4 3 -2 6 -13 5 -11 0 -14 -3 -6 -6z"/>
<path d="M7123 6275 c-40 -17 -69 -71 -59 -110 19 -76 111 -101 167 -46 49 50
35 122 -31 156 -35 18 -36 18 -77 0z"/>
<path d="M6288 5743 c7 -3 16 -2 19 1 4 3 -2 6 -13 5 -11 0 -14 -3 -6 -6z"/>
<path d="M5976 5712 c-2 -4 -1 -14 4 -22 7 -11 9 -9 7 8 -1 24 -3 26 -11 14z"/>
<path d="M6268 5633 c34 -2 90 -2 125 0 34 2 6 3 -63 3 -69 0 -97 -1 -62 -3z"/>
<path d="M7269 5441 c-49 -50 -35 -122 32 -156 59 -31 129 17 129 89 -1 44
-13 66 -47 84 -39 21 -82 14 -114 -17z"/>
<path d="M7100 5319 c0 -11 4 -18 10 -14 5 3 7 12 3 20 -7 21 -13 19 -13 -6z"/>
<path d="M7250 5296 c0 -2 8 -10 18 -17 15 -13 16 -12 3 4 -13 16 -21 21 -21
13z"/>
<path d="M7401 5274 c0 -11 3 -14 6 -6 3 7 2 16 -1 19 -3 4 -6 -2 -5 -13z"/>
<path d="M7494 5208 l-19 -23 23 19 c21 18 27 26 19 26 -2 0 -12 -10 -23 -22z"/>
</g>
</svg>
